<?xml version="1.0" encoding="UTF-8"?>
<!DOCTYPE svg PUBLIC "-//W3C//DTD SVG 1.1//EN" "http://www.w3.org/Graphics/SVG/1.1/DTD/svg11.dtd">
<!-- Creator: CorelDRAW 2018 (64-Bit) -->
<svg xmlns="http://www.w3.org/2000/svg" xml:space="preserve" width="100mm" height="100mm" version="1.1" style="shape-rendering:geometricPrecision; text-rendering:geometricPrecision; image-rendering:optimizeQuality; fill-rule:evenodd; clip-rule:evenodd"
viewBox="0 0 10000 10000"
 xmlns:xlink="http://www.w3.org/1999/xlink">
 <defs>
  <style type="text/css">
   <![CDATA[
    .str0 {stroke:black;stroke-width:20;stroke-miterlimit:22.9256}
    .fil0 {fill:black}
    .fil3 {fill:#FEFEFE}
    .fil1 {fill:url(#id0)}
    .fil2 {fill:url(#id1)}
   ]]>
  </style>
  <linearGradient id="id0" gradientUnits="userSpaceOnUse" x1="9198.84" y1="1349" x2="9198.84" y2="3791.99">
   <stop offset="0" style="stop-opacity:1; stop-color:black"/>
   <stop offset="1" style="stop-opacity:1; stop-color:white"/>
  </linearGradient>
  <linearGradient id="id1" gradientUnits="userSpaceOnUse" xlink:href="#id0" x1="811.5" y1="8651" x2="811.5" y2="6208">
  </linearGradient>
 </defs>
 <g id="Warstwa_x0020_1">
  <metadata id="CorelCorpID_0Corel-Layer"/>
  <rect class="fil0 str0" x="-0" y="0" width="10000" height="10000"/>
  <rect class="fil1" x="9012.69" y="1348.99" width="372.31" height="2442.99"/>
  <rect class="fil2" x="614.99" y="6208" width="392.99" height="2442.99"/>
  <path class="fil3" d="M8423.2 6085.91l372.31 0 18.97 -753.26 173.11 664.59c31.6,116.11 -42.2,88.67 397.41,88.67l0 -2171.82 -372.31 0 0 889.41c-30.35,-34.91 -58.8,-177.47 -70.27,-219.29l-151.15 -572.8c-30.67,-125.14 34.2,-97.32 -368.07,-97.32l0 2171.82z"/>
  <path class="fil3" d="M7730.28 5641.2l0 -1282.4c0,-118.52 175.82,-118.52 175.82,0l0 1282.4c0,118.52 -175.82,118.52 -175.82,0zm-392.99 -1375.47l0 1468.55c0,188.55 183.76,372.31 372.31,372.31l217.18 0c188.55,0 372.31,-183.76 372.31,-372.31l0 -1468.55c0,-188.55 -183.76,-372.32 -372.31,-372.32l-217.18 0c-188.55,0 -372.31,183.77 -372.31,372.32z"/>
  <polygon class="fil3" points="6820.19,6085.91 7213.19,6085.91 7213.19,3914.09 6820.19,3914.09 "/>
  <path class="fil3" d="M5723.94 4265.73l0 444.69c0,145.34 91.6,221.29 171.45,283.61 32.32,25.22 56.46,45.13 87.1,68.02 370.1,276.55 310.26,198.12 310.26,579.15 0,118.52 -175.82,118.52 -175.82,0l0 -310.26 -392.99 0 0 403.34c0,188.55 183.76,372.31 372.31,372.31l230.67 0c46.11,-4.69 90.46,-16.02 141.91,-41.09 112.66,-54.88 216.91,-188.35 216.91,-331.22l0 -455.04c0,-84.98 -44.79,-186.95 -85.61,-234.99 -53.64,-63.12 -267.1,-223.73 -353.17,-288.03 -156.89,-117.21 -130.03,-121.03 -130.03,-397.42 0,-118.52 175.82,-118.52 175.82,0l0 258.55 392.99 0c0,-259.63 39.53,-451.55 -110.97,-602.62 -86.77,-87.09 -160.87,-114.07 -249.46,-121.32l-229.06 0c-188.55,0 -372.31,183.77 -372.31,372.32z"/>
  <path class="fil3" d="M4638.03 4265.73l0 444.69c0,211.9 241.59,331.27 427.24,482.86 173.64,141.78 141.57,77.93 141.57,447.92 0,118.52 -175.82,118.52 -175.82,0l0 -310.26 -392.99 0 0 403.34c0,188.55 183.76,372.31 372.31,372.31l226.45 0c88.33,-7.01 163.39,-32.94 246.75,-116.3 55.45,-55.45 116.3,-145.42 116.3,-235.33l0 -475.72c0,-231.99 -237.15,-372.38 -438.79,-523.02 -156.89,-117.21 -130.03,-121.03 -130.03,-397.42 0,-118.52 175.82,-118.52 175.82,0l0 258.55 393 0c0,-252.13 53.13,-549.34 -209.98,-679.42 -55.37,-27.38 -100.53,-39.57 -147.41,-44.52l-232.11 0c-188.55,0 -372.31,183.77 -372.31,372.32z"/>
  <polygon class="fil3" points="4120.93,6085.91 4513.93,6085.91 4513.93,3914.09 4120.93,3914.09 "/>
  <path class="fil3" d="M2642.03 6085.91l393 0 0 -899.75c44.29,50.95 191.43,802.97 237.86,899.75l93.08 0 222.61 -900.98 4.91 900.98 403.34 0 0 -2171.82 -434.36 0c-3.5,42.01 -19.79,82.67 -28.9,115.89 -11.89,43.27 -21.56,86.01 -31.07,124.06l-148.99 595.63c-10.07,36.64 -27.83,77.48 -28.9,126.23 -33.45,-24.5 -16.06,-11.96 -41.38,-113.76l-201.65 -801.52c-7.41,-28.46 -3.63,-46.53 -36.21,-46.53l-403.34 0 0 2171.82z"/>
  <polygon class="fil3" points="1711.25,6085.91 2517.93,6085.91 2517.93,5703.25 2104.25,5703.25 2104.25,5186.16 2424.85,5186.16 2424.85,4813.85 2104.25,4813.85 2104.25,4296.75 2517.93,4296.75 2517.93,3914.09 1711.25,3914.09 "/>
  <path class="fil3" d="M1039.02 4824.19c-23.83,0 -31.03,-7.19 -31.03,-31.02l0 -496.42c215.63,0 175.82,-9.23 175.82,424.02 0,76.6 -66.37,103.42 -144.79,103.42zm-424.02 1261.72l392.99 0 0 -889.41c85.41,0 175.82,16.35 175.82,134.44l0 754.97 392.99 0 0 -858.38c0,-129.76 -107.98,-191.75 -217.18,-217.18 2.24,-1.42 6.16,-5.2 7.37,-2.97 0.89,1.63 209.81,-47.16 209.81,-224.56l0 -568.8c0,-54.81 -13.27,-93.66 -34.05,-131.42 -66.5,-120.83 -175.46,-168.51 -327.91,-168.51l-599.84 0 0 2171.82z"/>
 </g>
</svg>
