<?xml version="1.0" encoding="UTF-8"?>
<!DOCTYPE svg PUBLIC "-//W3C//DTD SVG 1.1//EN" "http://www.w3.org/Graphics/SVG/1.1/DTD/svg11.dtd">
<!-- Creator: CorelDRAW 2018 (64-Bit) -->
<svg xmlns="http://www.w3.org/2000/svg" xml:space="preserve" width="100mm" height="100mm" version="1.1" style="shape-rendering:geometricPrecision; text-rendering:geometricPrecision; image-rendering:optimizeQuality; fill-rule:evenodd; clip-rule:evenodd"
viewBox="0 0 10000 10000"
 xmlns:xlink="http://www.w3.org/1999/xlink">
 <defs>
  <style type="text/css">
   <![CDATA[
    .fil0 {fill:white}
   ]]>
  </style>
 </defs>
 <g id="Warstwa_x0020_1">
  <metadata id="CorelCorpID_0Corel-Layer"/>
  <path class="fil0" d="M3646.96 7476.24c-348.99,99.6 -285.13,-166.85 -261.12,-525.32 14.52,-216.79 -13.06,-317.14 276.69,-249.52 45.36,88.64 109.73,571.95 -15.57,774.84zm47.65 -1126.86c-195.49,36.48 -690.67,-242.67 -714.3,424 -6.75,190.58 -64.86,996.69 127.28,1077.34 81.39,34.16 969.21,39.5 990.31,18.19l7.06 -3640.53c6.69,-247.58 -36.51,-488.7 -20.96,-739.95 14.61,-235.82 98.97,-468.75 -143.8,-587.28 -292.22,-142.67 -388.71,-0.06 -603.97,-23.58l-25.47 -763.29c-108.8,-12.25 -290.11,-54.54 -381.56,-27.34 -60.98,143.52 -50.22,2148.96 -5.95,2350.57l393 -11.81c30.4,-125.79 12.49,-617.69 15.79,-789.28 3.71,-193.77 -27.76,-593.65 291.58,-385.04 41.12,139.28 82.05,1485.96 43.57,1614.06 -153.49,34.56 -171.97,4.67 -311.09,79.25 -158.18,-59.19 -450.32,-74.04 -619.57,-26.8 -46.16,122.29 -40.61,895.53 17.31,1020.47l220.98 -18.63c94.52,-204.18 -146.56,-971.22 227.21,-769.26 72.82,172.69 -6.25,552.33 39.24,762.59 103.08,37.04 148.6,33.44 243.92,-14.82 67.63,-224.1 -39.02,-591.4 51.48,-787.49l132.31 21.49c57.21,115.42 31.25,1025.17 25.63,1217.14z"/>
  <path class="fil0" d="M9022.04 6769.61c38.01,94.46 37.68,361.77 43.35,477.94 6.69,137.1 20.24,335.67 -199.66,292.94 -219.12,-42.59 -170.69,-646.5 -91.75,-792.76 119.11,-26.94 146.51,-37.3 248.06,21.88zm-687.04 1148.39c142.31,13.78 278.04,-12.51 410.16,-11.16 316.46,3.23 609.97,67.8 685.9,-143.45 32.63,-90.79 63.82,-1117.9 -37.5,-1255.28 -176.54,-239.37 -504.41,-86.86 -666.69,-111.36l-14.48 -760.12 -385.51 -13.55c-30.49,156.29 -26.45,2178.01 8.12,2294.92z"/>
  <path class="fil0" d="M4803.74 6679.02c395.01,-48.9 257.05,345.29 140.16,383.96 -242.05,80.08 -267.92,-209.68 -140.16,-383.96zm625.88 667.54c52.54,-103.4 43.22,-524.28 35.58,-662.99 -11.32,-205.32 -139.92,-315.7 -336.95,-352.97 -117.6,-22.24 -533.54,-8.87 -643.48,31.08 -214.59,78 -191.61,275.82 -195.32,471.34 -8.33,439.09 -85.18,1015.28 279.93,1064.41 40.95,5.51 605.5,-19.89 651.07,-27.92 187.74,-33.07 249.54,-222.05 217.72,-396.59 -407.62,-117.96 -694.89,302.66 -688.43,-89.79l679.88 -36.57z"/>
  <path class="fil0" d="M7500.15 7068.55c-158.7,-145.98 -126.06,-475.9 199.62,-374.98 101.87,202.13 41.97,390.15 -199.62,374.98zm621.41 283.45c30.48,-101.74 32.97,-542.93 26.84,-668.09 -10.74,-219.69 -117.31,-308.04 -326.55,-350.9 -122.91,-25.18 -533.2,-13 -644.78,31.99 -287.17,115.77 -211.89,778.65 -184.17,1095.66 16.65,190.48 14.77,390.25 243.2,433.7 29.94,5.7 605.07,-14.49 649.35,-20.86 222.5,-31.98 275.49,-214.28 234.33,-415.03 -170.11,-15.32 -275.72,-37.27 -416.97,52.03 -134.67,85.16 -267.59,60.97 -267.94,-128.08l686.69 -30.42z"/>
  <path class="fil0" d="M4708.54 3237.1c417.69,-242.29 289.5,784.55 214.76,843.4 -69.59,54.78 -195.1,54.07 -247.17,-19.27 -51.03,-71.9 -65.13,-767.55 32.41,-824.13zm656.61 1028.24c91.7,-160 82.83,-1086.05 -15.6,-1260.6 -108.61,-192.58 -1007.62,-173.91 -1067.6,45.75 -31.36,114.85 -35.82,1210.58 21.48,1293.76 91.97,133.51 441.57,94.91 590.9,94.98 231.46,0.1 357.23,24.3 470.82,-173.89z"/>
  <path class="fil0" d="M6008.6 7858.97c63.31,-127.22 42.27,-587.31 45.69,-759.6 3.87,-194.77 -65.9,-637.2 289.48,-411.67 76.24,192.96 -15.78,874.53 34.45,1152.34 114.58,42.45 264.92,39.22 381.22,1.39 45.34,-113.74 45.51,-1241.32 -8.1,-1356.68 -68.59,-147.61 -407.09,-187.01 -553.94,-160.74 -170.24,30.45 -82.93,70.97 -325.11,27.25 -151.12,-27.29 -137.93,-50.94 -271.58,43.51l9.12 1482.34 398.77 -18.14z"/>
  <path class="fil0" d="M6959.47 3372.97c3.96,-139.49 51.34,-204.96 209.36,-173.62 108.64,21.55 108.14,111.32 151.86,196.23 121.56,25.22 223.79,35.82 341.29,-6.68 61.85,-422.85 27.24,-508.73 -369.98,-509.34 -217.49,-0.34 -610.7,-53.32 -719.55,155.81 -50.47,96.97 -40.09,312.67 -23.53,423.86 53.41,358.71 660.79,246.79 735.09,589.48 -85.27,63.78 -130.92,102.62 -249.27,54.76 -104.57,-42.28 -77.52,-121.18 -113.33,-213.2 -115.39,-6.59 -265.44,-28.31 -368.59,13.66 -61.57,152.11 -105.91,527.79 323.43,519.26 216.53,-4.3 634.91,84.28 762.43,-112.87 40.54,-162.9 26.32,-357.04 3.67,-524.23 -136.83,-197.73 -505.1,-242.79 -682.88,-413.12z"/>
  <path class="fil0" d="M2010.63 3374.48c3.56,-143.62 39.99,-215.95 211.74,-172.64 120.77,30.45 88.07,103.61 155.56,199.07 128.35,17.72 218.36,30.59 340.53,-14.5 20.3,-189.14 30.6,-348.04 -100.63,-491.3 -167.39,-24.01 -573.16,-27.15 -744,-9.61 -285.12,29.26 -289.99,215.11 -283.45,456.34 7.89,291.55 88.78,288.36 324.1,403.99 174.37,85.68 437.9,123.81 397.15,325.94 -87.33,54.37 -169.51,78.69 -262.42,12.82 -109.44,-77.59 -24.75,-93.27 -96.87,-198.22l-356.57 4.86c-93.92,238.65 -36.99,533.33 278.4,533.09 775.31,-0.58 853.68,100.43 820.53,-463.25 -8.43,-143.34 18.19,-210.66 -120.07,-285.65 -133.28,-72.27 -476.49,-202 -564,-300.94z"/>
  <path class="fil0" d="M6046.92 2870.67c-131.86,-287.54 203.27,-702.41 -173.66,-702.1 -87.47,0.06 -190.5,-10.05 -265.82,20.59 -60.36,153.78 -14.38,1307.12 -13.58,1565.65 0.65,210.87 -62.47,519.75 130.01,649.36 106.07,71.42 557.9,61.33 680.2,23.31l-18.05 -270.97c-176.67,-79.51 -201.88,36.1 -351.08,-89.37 -41.18,-114.47 -37.57,-751.18 13.76,-844.95 110.51,-61.44 205.06,-31.61 335.79,-45.41 46.01,-101.6 35.15,-166.9 17.34,-285.28l-354.91 -20.83z"/>
  <path class="fil0" d="M2116.93 5153.63c272.55,-155.83 222.05,438.54 142.13,569.54l-137.21 -28.23c-45.04,-98.75 -42.83,-440.26 -4.92,-541.31zm-268.49 703.3c131.62,135.14 434.72,135.91 609.36,77.97 197.5,-65.53 147.47,-355.13 147.38,-522.61 -0.1,-172.18 43.51,-461.45 -168.48,-505.19 -168.47,-34.76 -458.86,-25.85 -600.67,90.43l12.41 859.4z"/>
  <path class="fil0" d="M1069.04 5656.95l-4.49 -248.86c-90.94,27.95 -165.93,6.59 -197.08,-40.12 -144.06,-233.79 197.92,-243.89 222.21,-252.4l-14.86 -204.1c-96.26,-31.78 -360.38,-44.08 -441.11,26.68 -109.03,95.6 -82.7,307.39 -90.36,444.53 -10.25,183.84 -10.51,886.69 26.59,1036.46 101.07,52.8 138.93,29.86 253.01,16.33 86.33,-225.07 -29.1,-525.5 41.29,-761.66 90.82,-26.09 63.64,-6.64 204.8,-16.86z"/>
  <path class="fil0" d="M1484.72 5940.54c19.59,-119.84 3.89,-419.27 1.9,-558.59 -4.64,-323.73 60.88,-192.11 254.36,-282.48l-6.66 -167.71c-94.39,-25.81 -401.93,-24.29 -496.75,17.49 -52.65,126.25 -31.67,826.75 -12.04,1009.99l259.19 -18.7z"/>
 </g>
</svg>
