<?xml version="1.0" encoding="UTF-8"?>
<!DOCTYPE svg PUBLIC "-//W3C//DTD SVG 1.1//EN" "http://www.w3.org/Graphics/SVG/1.1/DTD/svg11.dtd">
<!-- Creator: CorelDRAW 2018 (64-Bit) -->
<svg xmlns="http://www.w3.org/2000/svg" xml:space="preserve" width="100mm" height="40mm" version="1.1" style="shape-rendering:geometricPrecision; text-rendering:geometricPrecision; image-rendering:optimizeQuality; fill-rule:evenodd; clip-rule:evenodd"
viewBox="0 0 10000 4000"
 xmlns:xlink="http://www.w3.org/1999/xlink">
 <defs>
  <style type="text/css">
   <![CDATA[
    .fil0 {fill:white}
   ]]>
  </style>
 </defs>
 <g id="Warstwa_x0020_1">
  <metadata id="CorelCorpID_0Corel-Layer"/>
  <path class="fil0" d="M7888.61 2539.03c-50.94,29.01 -129.53,23.91 -183.54,24.75l-259.47 53.24c-55.13,16.87 -19.94,14.59 -66.4,27.75 -61.83,17.52 -126.82,-7.38 -153.16,63.59 13.54,8.93 9.24,7.87 32.68,14.1 18.04,4.78 17.59,3.57 35.82,4.9 285.96,20.97 307.24,25.13 309.03,177.06 93.79,7.65 192.1,-16.16 271.49,-15.74 49.5,0.26 74.61,16.85 145.37,15.99 61.69,-0.76 82.36,-1.82 120.71,21.23 103.29,62.1 199.62,274.22 302.44,303.2 44.45,-41.64 62.58,-108.73 100.18,-154.32 62.91,-76.27 254.74,-138.32 252.27,-245.04 -1.46,-62.95 -63.92,-91.81 -55.38,-175.31 83.51,-32.29 141.15,-7.42 203.12,-62.79 39.98,-35.72 120.79,-80.39 143.92,-122.26 46.04,-83.34 1.1,-112.96 94.91,-171.46 60.51,-37.73 112.65,-49.52 167.65,-85.46 10.16,-98.86 13.64,-115.8 -37.49,-168.06 -65.75,-67.19 -153.78,-126.18 -210.05,-201.06 -30.85,-41.05 -51.12,-71.43 -77.27,-114.31 -47,-2.36 -64.98,1.64 -93.61,14.03l-211.17 91.74c-52.86,26.4 -57.22,55.87 -143.45,58.56 -26.44,0.83 -167.25,27.41 -173.1,-2.92l0.89 -70.33c0.75,-3.17 17.31,-54.21 20.45,-62.26 13.88,-35.63 38.07,-83.68 66.51,-106.22 71.04,28.17 92.06,97.83 147.01,122.04 26.38,11.62 47.96,-5.22 80.75,-24.21 81.15,-47.01 189.03,-74.3 272.36,-111.22 64.5,-28.57 110.02,-61.39 171.73,-82.41 0.63,-59.71 -3.49,-61.68 11.82,-110.36 33.86,-107.66 -38.3,-147.43 -88.92,-238.83 -32.72,-59.07 -65.67,-94.93 -100.53,-141.38 -38.33,-51.07 -46.94,-99.88 -120.52,-111.62 -85.84,-13.7 -117.29,31.81 -178.95,62 -162.93,79.79 -326.61,133.94 -426.75,285.47 -86.24,-17.25 -33.26,-74.78 -175.46,-2.55 -52.64,26.73 -126.04,39.67 -90.23,115.49 23.59,49.96 82.6,110.4 26.99,157.27 -22.16,18.67 -114.79,65.44 -157.63,70.75 -10.61,-66.27 -0.41,-99.63 -15.31,-163.85 -14.6,-62.97 24.57,-159.56 -42.88,-159.11 -3.71,0.03 -15.43,0.95 -19.45,1.5 -93.39,12.69 -193.02,62.68 -276.8,90.84 -30.7,10.32 -18.32,3.85 -44.22,16.97 -166.25,84.19 4.77,164.39 27.76,179.28 8.79,63.92 -1.68,111.13 -18.1,154.56 -62.36,-2.51 -156.17,-30.93 -169.82,-99.1 -5.05,-25.23 5.08,-65.06 -7.82,-116.26 -10.5,-41.7 -23.79,-50.49 -44.96,-86.26 -63.1,1.15 -124.35,17.72 -172.88,37.8 -209.91,86.84 -109.62,54.39 -157.2,207.07 -12.37,39.7 -15.61,24.11 -26.23,67.03 -4.27,17.24 -3.15,26.5 -6.83,40.66l-17.69 42.54 -23.87 -61.64c-32.88,-157.09 -32.31,-223.14 -212.11,-142.06 -138.3,62.37 -41.33,213.37 -122.76,408.41l-106.32 -10.64 27.06 -138.9c9.95,-58.69 44.68,-64.28 45,-122.16 0.2,-34.77 -20.89,-91.72 -28.14,-133.51 -10.7,-61.7 -20.39,-75.6 -62.67,-105.2l-319.46 136.91c-23.69,22.77 -100.38,274.4 -131.96,316.19 -27.16,35.94 -42.62,23.88 -57.28,66.82 -51.24,150.06 -8.65,205.61 99.93,309.85 42.7,40.99 24.74,27.18 74.75,22.02 88.47,-9.14 88.28,25.05 136.73,65.72 78.64,1.97 232.76,-55.17 331.49,-69.79 84.01,-12.43 151.15,-51.53 215.33,-90.67 51.33,-31.3 46.64,-14.17 56.6,-3.52 40.47,43.26 -59.39,75.95 -0.57,254 40.3,13.88 330.55,-44.53 357.1,-90.15 41.01,-70.44 -55.34,-292.87 25.73,-409.05 128.28,-21.57 121.2,183.33 191.33,307.22 60.44,3.76 74.57,-4.64 122.25,-19.23 101.99,-31.21 220.51,-36.35 309.45,-86.29 0.72,-88.02 23.97,-160.6 45.28,-234.15 135.97,2.36 230.24,72.85 353.36,92.81l384.64 38.84c21.27,78.2 -45.59,72.61 -113.67,152.69 -1.68,1.99 -4.06,4.68 -5.74,6.65 -41.85,48.93 -105.27,111.88 -176.53,112.45 -43.54,-69.21 -39.78,-118.15 -96.57,-189.59 -86.35,-8.42 -173.47,30.49 -246.85,51.05l-208.93 81.56c11.44,53.6 -2.14,30.16 35.86,67.53l118.95 99.12z"/>
  <path class="fil0" d="M3173.5 2086.87l15.92 -121.08 39.09 -25.51c43.15,34.52 56.73,49.23 47.57,127.03 -37.72,16.9 -50.6,21.78 -102.58,19.56zm-2287.77 -430.79c31.91,50.32 60.29,55.82 76.3,117.26l-318.25 147.35c-4.76,104.67 83.71,276.99 87.88,343.92l151.07 -3.94c0.79,82.63 -34.33,92.71 34.84,147.97 71.94,57.47 181.7,105.58 254.1,157.38 84.42,60.39 183.92,112.13 296.44,122.18 108.16,9.66 260.62,-224.93 383.57,-248.27 13.08,16.23 5.17,3.87 14.67,26.99 4.11,10 4.25,18.28 9.52,31.98 62.42,-2.8 51.46,-25.63 108.86,-26.64l36.28 58.33c52.56,-3.08 110.95,-30.31 164.96,-47 54.24,-16.77 101.64,-29.1 133.91,-65.51 4.12,-85.27 -43.17,-145.29 -18.95,-215.94 28.44,-37.53 8.36,-16.78 60.43,-37.76 62.73,-25.28 21.88,-20.62 80.18,-11.64 2.89,0.44 7.46,1.58 10.97,3.03 1.34,3.57 2.85,5.02 3.18,10.98 0.32,5.91 2.37,8.04 2.7,11l-8.33 75.27c-43.73,141.77 21.18,72.48 77.57,107.91 34.1,21.42 42.72,148.87 194.96,109.71 275.81,-70.94 336.39,81.73 414.69,-155.98 10.31,-31.32 -6.08,-16.27 16.14,-46.12 18.75,-25.18 56.35,-33.73 80.74,-11.56 19.93,18.13 17.9,59.68 19.05,95.63 5.71,178.44 41.76,148.7 185.62,124.19 66.56,-11.33 75.21,2.65 137.19,-22.44 14.53,-34.38 16.04,-32.08 17.93,-72.96l11.54 -88.43c42.13,21.1 14.78,91.11 52.25,158.24 48.58,4.91 211.89,-17.64 264.25,-33.65 102.65,-31.38 74.68,-106.7 83.97,-216.88 3.15,-37.3 24.98,-85.36 18.32,-122.39 -8.34,-46.35 -44.66,-28.28 -60.5,-89.04 -29.03,-111.35 37.19,-190.49 41.71,-260.08l-324.99 34.56c-146.38,27.09 -90.35,147.13 -121.1,245.07 -69.57,-3.53 -84.89,-104.4 -86.67,-173.73 76.92,-61.44 58.61,-104.57 28.45,-223.23 -14.78,-58.12 -21.21,-182.44 -77.12,-209.12 -60.98,-4.44 -205.93,14.67 -257.75,32.14 -121.55,40.97 -121.63,4 -164.33,135.41 -11.43,35.18 -18.56,90.75 -30.75,117.17 -19.99,43.31 -104.1,66.85 -145.02,158.87 -27.16,61.06 -1.28,86.87 -24.45,130.65 -67.85,-31.48 -40.8,-226.8 -40.55,-296.69 0.43,-108.15 -6.6,-152.11 -17.87,-251.23l-96.3 -60.22c-47,-31.44 -76.92,-8.63 -123.15,4.04l-4.08 151.2c-78.59,35.27 -104.17,33.86 -82.75,150.7 27.58,150.38 41.74,296.79 -146.04,258.17 -0.9,-54.69 8.8,-74.9 10.28,-109.22 5.6,-129.89 -26.08,-52.69 26.65,-213.17 14.4,-43.83 46.11,-109.59 -28.43,-115.7 -11.52,-0.94 -33.26,4.43 -41.3,6.42 -37.73,9.33 -44.46,14.21 -75.41,26.03 -74.23,28.36 -73.62,19.93 -97.62,95.39 -51.92,163.32 -9.37,56.7 -64.29,129.41 -29.13,38.58 -27.6,117.43 -30.19,176.92 -55.58,43.13 -45.9,4.13 -62.19,86.01 -12.65,63.57 -4.61,64.45 -40.56,106.37 -50.41,-21.25 -41.45,-59.95 -108.85,-93.42 -153.89,57.77 -162.47,218.48 -339.63,177.16 -211.58,-49.34 -146.21,-322.77 -11.13,-299.76 61.32,23.88 32.9,47.48 110.44,59.06 84.76,12.65 65.15,3.58 119.37,46.1l290.59 -474.12c131.76,-226.17 42.71,-143.95 -121.83,-315.26 -49.63,-51.67 -45.8,-41.09 -111.67,-81.45 -206.93,-126.82 -129.2,-150.95 -452.2,121.35l-250.29 233.6c-31.81,28.45 -114.28,125.29 -127.03,161.43z"/>
  <path class="fil0" d="M5085.45 1726.45c-14.08,-140.18 31.62,-135.32 -115.92,-156.23 -215.42,-30.53 -122.41,94.04 -171.39,190.46 -36.37,-4.2 -29.6,-13.08 -46.49,-39.25l-96.74 -123.84c-24.32,-41.06 -6.42,-41.4 -17.45,-89.87 -82.94,-28.88 -73.53,-14.61 -124.83,-75.56 -100.45,-6.46 -233.56,25.1 -383.66,31.07 -11.9,60.81 7.14,43.96 5.68,97.92 -1.41,51.93 -36.92,35.93 -33.88,105.07 1.86,42.18 17.83,53.78 11.65,121.93l-16.19 104.65c-16.47,33.46 -35.58,33.12 -52.28,79.97 -8.19,22.96 42.03,208.14 40.7,353.95 22.26,22.25 57.48,42.9 97.12,59.15 122.44,50.19 100.84,49.71 209.68,-16.39 107.52,-65.3 143.74,-13.02 43.34,-236.5 -31.46,-70.05 11.98,-117.02 95.35,-107.6l72.87 109.11c95.88,151.1 8.11,128.49 111.08,204.62 57.13,42.24 120.23,-5.32 199.76,-13.68 103.24,-10.84 111.12,-9.02 141.47,-77.49 1.42,-3.21 2.91,-6.79 4.24,-9.78l9.45 -20.29c98.58,19.24 173.76,169.58 275.03,226.54 113.63,63.92 129.76,52.29 193.4,-5.28 1.88,-1.71 4.51,-4.15 6.37,-5.88l37.7 -34.91c13.31,-10.45 9.63,-4.85 27.94,-20.4 19.62,-16.65 181.21,-188.38 186.28,-238.05 -40.22,-27.08 -114.19,-31.13 -157.98,-49.16 -72.35,-29.79 -70.2,-53.9 -172.84,-47.89 11.95,58.57 45.63,44.78 44.7,114.69 -59.73,10.61 -72.97,-13.31 -99.9,-43.64 -17.7,-19.94 -63.4,-74.36 -71.93,-94.96 10.87,-20.9 7.17,-7.37 21.24,-23.65 17.14,-19.84 56.31,-152.06 165.27,-164.52 74.41,113.8 -37.52,171.34 175.26,195.45 167.59,18.98 93.15,-60.19 235.48,-241.09 22.69,-28.85 30.58,-55.78 44.98,-80.66 -68.91,-106.93 -33.48,-82.33 -65.69,-120.31 -23.2,-27.35 -350.59,-183.33 -396.11,-180.79 -45.24,2.52 -349.05,177.05 -362.3,220.62 -12.17,39.99 25.27,107.55 -70.46,102.47z"/>
  <path class="fil0" d="M1521.12 2938.17c45.39,21.63 67.04,-15.73 163.04,70.85 40.87,36.86 76.28,83.48 139.09,71.03 3.81,-0.76 147.83,-65.33 158.45,-72.71 77.47,-53.87 22.48,-52.22 159.57,-60.94 113.32,-7.22 489.19,-85.2 580.76,-87.91 158.29,-4.68 331.16,-50.12 395.34,-24.62 91.19,36.25 75.48,-3.27 141.93,-34 32.37,-14.98 357.1,-44.46 400.99,-37.15 70.59,11.77 316.03,-26.39 390.18,-45.21 65.88,-16.72 146.52,-4.4 218.22,-11.06 60.44,-5.62 137.45,-25.35 195.56,-25.26l338.67 -0.55c253.52,-0.27 148.61,24.12 245.15,39.73 41.62,6.74 127.49,-24.36 202.05,-25.21 591.16,-6.78 549.4,-38 1161.96,13.19l410.39 9.92c133.01,-0.79 189.34,64.64 215.04,-46.19l-55.92 -30.81c-5.11,-1.96 -50.87,-15.25 -51.93,-15.42 -48.27,-7.99 -182.39,-4.98 -251.2,-29.78 -38.3,-13.81 -54.84,-27.52 -97.52,-31.61 -151.82,-14.56 -383.83,-1.56 -544.31,-1.61l-567.18 -24.84c-97.33,13.94 -334.61,-19.3 -412.53,-19.24l-351.34 14.48c-67.95,2.59 -73.74,-16.83 -151.88,-5.75 -95.73,13.58 -232.73,-1.75 -319.04,8.46 -46.3,5.47 -91.21,28.87 -131.19,38.94 -47.31,11.91 -107.51,2.67 -159.8,7.02 -42.36,3.53 -94.85,17.4 -135.84,23.09 -197.08,27.34 -441.92,-8.07 -641.76,28.63 -96.94,17.81 -229.18,8.77 -313.59,-6.1l-577.86 -3.29c-28.66,2.13 -69.75,14.89 -90.2,30.5 -39.15,29.9 -19.2,49.54 -42.46,77.04 -87.1,-8.03 -26.21,-23.94 -214.26,-17.35 -57.58,84.56 -223.32,104.59 -367.46,185.46 -46.57,26.13 -17.61,-6.59 -39.12,38.27z"/>
  <path class="fil0" d="M5558.65 985.25c-3.83,-41.78 12.35,-48.47 42.55,-64.33 24.87,14.84 11.05,3.01 30.75,24.02 -14.85,39.97 -20.43,42.7 -73.3,40.31zm-819.55 -82.76c-81.79,12.01 -78.46,-40.03 -82.9,-56.43l-10.52 -41.69c-244.17,-15.81 -196.73,32.88 -217.72,87.72 -171.35,27.85 -317.03,-5.17 -286.59,113.41 1.06,4.16 5.13,16.47 6.59,20.37 9.23,24.68 1.56,12.17 13.91,29.05 134.85,3.94 154.02,-21.13 225.65,35.64 -36.36,63.49 15.15,49.48 -59.57,100.12l17.42 114.52c70.96,3.35 106.79,-5.69 168.18,-10.49 84.14,-6.58 102.79,9.53 148.52,-45.48 1.55,-3.12 2.86,-11.54 3.33,-9.91 0.84,2.91 18.36,-67.38 12.3,-101.77 -9.45,-53.69 -57.17,-69.74 28.45,-82.43 60.77,95.98 -93.2,219.76 238.81,174.33 23.28,-71.65 -14.92,-150.61 103.98,-145.97 9.43,12.77 13.77,21.12 21.71,35.5 1.73,3.12 6.45,12.74 8.32,15.94 64.12,109.54 17.54,23.63 46.27,125.83 39.25,18.09 27.73,13.88 68.83,8.19 137.13,-18.97 91.42,-15.15 101.55,-196.35 119.49,40.44 152.98,310.66 339.69,183.18 36.78,-25.11 62.44,-33.24 77.88,-71.41l-27.66 -24.3c-2.53,-1.82 -27.31,-16.62 -28.86,-17.42 -33.35,-17.42 -44.52,-16.91 -73.63,-35.02 32.56,-34.48 -10.19,-5.92 31.03,-20.33 15.95,-5.58 29.73,-6.19 47.11,-6.4 26.31,-0.32 58.3,4.51 85.97,3.23 50.85,-2.35 86.26,-27.78 92.08,-70.61 4.15,-30.58 -18,-110.78 -34.12,-130.43l-117.37 -61.79c-107.08,-50.07 -161.98,-15.12 -239.57,28.71 -202.03,114.1 -95.76,128.61 -149.35,197.73 -18.17,-48.37 -27.42,-91.93 -42.7,-134.91 -178.35,-39.03 -127,26.07 -302.56,-23.2 -23.28,-96.33 -13.8,-125.64 -24.9,-230.76 -28.93,-17.15 -29.64,-38.14 -86.51,-29.27 -32.66,5.09 -58.76,22.46 -73.43,48.5 -30.7,54.48 -30.28,150.03 -29.62,224.4z"/>
  <path class="fil0" d="M1379.96 2908.85c-53.26,13.16 -99.94,29.71 -158.87,40.47 -64.36,11.74 -72.83,25.47 -138.2,40.29l-224.31 66c-61.87,23.05 -35.46,3.98 -50.48,44.76 43.22,16.93 76.1,8.14 122.29,35.03 32.72,19.04 63.75,37.91 96.87,58.72 75.27,47.3 66.9,113.77 123.37,174.8 97.35,0.19 135.61,19.09 192.12,-31.61 -17.07,-40.07 -26.51,-30.28 -62.01,-60.47 57.27,-67.11 133.89,-46.83 186.63,-100.38l-11.16 -167.53c-92.5,-51.68 -49.16,-60.57 -76.25,-100.08z"/>
  <path class="fil0" d="M3657.65 1710.86c36.92,-1.28 293.24,-34.54 322.79,-46.1 16.25,-29.2 39.93,-121.66 39.87,-159.18 -43.42,-36.58 -46.08,-76.46 -128.51,-85.45 -118.76,-12.94 -238,31.05 -291.37,136.93 -37.32,74.05 30.92,109.99 57.22,153.8z"/>
 </g>
</svg>
